<?xml version="1.0" encoding="UTF-8"?>
<svg id="Calque_1" xmlns="http://www.w3.org/2000/svg" version="1.1" viewBox="0 0 692.9 595.3">
  <!-- Generator: Adobe Illustrator 30.2.1, SVG Export Plug-In . SVG Version: 2.1.1 Build 1)  -->
  <defs>
    <style>
      .st0 {
        fill: #fff;
      }
    </style>
  </defs>
  <path class="st0" d="M656.1,265.7c-3.6-1-4.9-3-5.4-7.7-.3-3.3-.6-4-2.4-5.2-1.1-.7-2.3-2.1-2.7-3.1-.6-1.4-.9-1.4-1.8,0-2,3.2-14.1,1.8-12.6-1.4.2-.5,0-1.6-.5-2.3s-.7-1.6-.3-2c.3-.4.8-1,1.1-1.3.2-.4.9-1,1.4-1.5s.5-1.5,0-2.3c-.6-.8-.6-1.7,0-2.1,1-.7,0-2.3-1.4-2.6-1.7-.3-2.4-1.9-1.6-3.8.4-1,.4-1.7,0-1.5-1.6.9-3.6-.1-3.9-2.1-.4-2.7-7.5,1.3-28.2,15.8-3.7,2.6-6.8,4.7-9.4,6.4.2-.3.5-.7.9-1.1,1-1,1.7-2.2,1.6-2.6,0-.4,0-.9.3-1.1.3-.2.5-.6.3-.9-.2-.3,1.1-1.3,2.8-2.3,3.4-2.1,3.5-3.2.4-3.2s-2.2-.5-2.6-1.1c0-.1-.2-.3-.4-.4,4.5-4.3,10-8.7,16.2-13,4.2-2.9,7.6-5.7,7.5-6.2,0-1.9-4.6-.2-11.5,4.6-7.1,4.9-7.5,5-10.4,3.6-2.6-1.3-3.1-1.2-3.9.7-.6,1.5-1.8,2.8-2.8,3.5-2.9-.3-5.3-2-6.7-4.6,20.9-16.9,25.7-21.5,26.8-25.6.5-1.8,1.5-3.4,2.4-3.6,1.7-.4,1.1-1.8-1.2-2.7-.8-.3-1.8-1.4-2.2-2.7-2.6-6.8-2.8-6.8-30,12.4-1.1.8-2.2,1.5-3.2,2.2-1.7,0-3.8-2.3-4.5-5.4-.5-2.1-2.9-3.4-4.4-2.4,3.4-2.7,7.2-5.8,11.7-9.3,8-6.3,10.4-9,8.9-10-.6-.4-4.6,2.4-10.2,6.9-6.3,5.2-9.5,7.3-9.9,6.6-1.1-1.6,0-3.3,4.6-6.5,2.3-1.7,6.2-5.1,8.5-7.6s5-5.1,5.8-5.8c1.8-1.4,1.2-3.6-1.4-5-1.5-.8-2.8,0-9.9,6.3-8.2,7.4-14.4,11.1-16.2,9.9-.5-.4-1.1-.2-1.1.3s-.7.9-1.4.7c-.7-.1-3.6,1.7-6.5,3.9-4.8,3.8-7.6,4.5-7.2,1.8.3-1.8,4.8-7.7,7.3-9.5,1.4-1,2.2-2.3,1.8-2.8-.9-1.2,1.7-6.3,4-7.9.9-.7,2.4-2.7,3.2-4.5,1.2-2.5,3.9-5,11.6-10.4,12.3-8.7,11.8-8.2,10.6-9-.6-.4-4.6,2.2-9.6,6.2-7,5.6-9,6.7-10.6,6.1-1.2-.4-3.6.3-6,1.7-3.8,2.3-4.1,2.3-5.7.1-2-2.7-1-4.9,3.9-8.8,3.8-3.1,5.8-7.5,4.1-9-2-1.8-1.4-5.7,1.2-7.6,5.2-3.7.8-2.1-6.8,2.6-8.1,5-10.6,5.6-12.3,3.3-2.3-3.2-.4-6.3,6.9-11.5,4.3-3.1,6.8-5.5,6.4-6-.4-.5-1-.8-1.3-.5-.3.2-1.6-.4-2.7-1.4-1.2-1-3.4-1.7-4.9-1.6s-3.6.2-4.5,0c-.9,0-3.5,1.2-5.7,2.8-2.2,1.6-4.4,2.7-4.9,2.5s-2,.3-3.4,1.1c-1.4.8-3.2,1.3-4.1,1-.9-.3-1.7,0-1.8.5-.3,1.6-2.3,1-2.5-.8-.3-2-4.7-4.3-7.7-4.1-1.8,0-2.4-.2-2.6-1.6,0-.9-.6-1.8-.9-2-1.3-.5-1.6-10.1-.3-11,1.8-1.3.5-2.5-3.2-3.4-2-.5-3.8-1.6-4.8-3-2.4-3.4-8.1-.4-15,7.7-5.4,6.4-6,6.9-6.6,5.4-.3-.8-.3-1.6.2-1.7s1.5-1.6,2.4-3.4c.9-1.7,3.6-6.1,6-9.7,4.2-6.2,4.7-10.1,1.2-9.6-1.3.2-1.5-4.4-.2-5.3.6-.4.6-1.7,0-2.9-.8-1.7-.6-2.5,1.4-3.9,2.3-1.6,2.3-1.9.4-3.2-1.1-.8-2.4-1.2-2.8-.9-.4.3-1.4,0-2.2-.9-1.1-1.2-2-.9-5.1,1.6-2.5,2.1-5.2,2.2-8.1.4-2.4-1.5-5.4-2.6-6.8-2.4-2,.2-2.7-.2-3.5-1.9-.7-1.6-1.3-2-1.9-1.5-1.2.9-2.3-.7-1.9-2.9.3-1.6.3-1.7-.7-1-.6.4-1.5,0-2.1-.7-1.1-1.5-1.6-1.4-4.3.9-2,1.7-8.1-2.6-11.8-8.4-2.3-3.5-2.6-3.5-5.2.4-1.4,2.1-1.8,2.2-2.8.7-1.1-1.5-1.4-1.4-2.7.9-.8,1.4-2.8,3-4.4,3.5-.7.2-1.2.4-1.6.5-.2-.3-.5-.7-.7-1,.1-.4.3-.8.5-1.3.6-1.6,1.5-2.9,2.1-2.9s.9-1.2.7-2.6c-.2-1.4,0-2.8.5-3.2.4-.3.3-1.9-.4-3.4-1.6-3.9-1.7-4-2.3-1.8-.6,2.6-3.5,1.7-3.3-1,.2-3.8-3.2-7.3-4.6-4.8-.8,1.5-2.2,2.4-3.9,2.6-2.4.3-4.2,1.9-6.3,5.6-.9,1.5-2.3-.4-2.7-3.6-.3-2.3-.3-2.4-1.5-1.5-.7.5-1.7.3-2.3-.5-.6-.9-1.6-1-2.5-.4-.8.6-1.6.9-1.8.7-.2-.2-.9-.9-1.6-1.5-1-.9-.7-1.8,1.5-4.2,2.9-3.1,2.9-3.9.2-5.1-1.3-.6-1.6-.9-1.2-1.7.2-.5,0-1.6-.6-2.4-1.2-1.7-9.8,5.6-9.8,8.5s-.4,1.4-1.2.8c-1.6-1.1-12.3,5.2-11.5,6.8.4.9,0,1.2-1.4,1-1.3,0-3.1,1-6,3.9-.5-1.1-.9-2.2-1.2-3.2,0-.3-.2-.5-.3-.8,8.1-6.8,9-8,6.8-9.1-1.2-.6-6.4,2.8-10.9,6.5-1,.4-2.1,1.1-3.5,2.2-1.4,1.2-5.3,0-5.7-1.8,0-.3-.3-.7-.5-1,4.6-2.9,11-7.8,11-8.7-.2-3.1-4.5-1.3-16.1,6.6-1.3.9-2.6,1.7-3.8,2.5-.2,0-.4.2-.7.2-2.1.7-6,3-10,5.9-.6.4-1.2.9-1.9,1.4-3.7,1.8-6.5,2.5-8.5,2.4-4.3-.4-45.1,29.3-45.1,32.8s-.1,2-.8.8c-1.2-2.3-30.2,18-33.3,23.5-1.7,2.9-3.6,4.6-8.1,7-5.2,2.8-5.8,3.4-4.8,4.8.6.8.8,1.7.5,1.9-1.3,1,.8,2,2.8,1.4.5-.2,1.2-.5,2.1-.9-5.2,4.4-10.8,9.2-16.5,14.1-41,35.2-75.3,63.5-78.3,64.7-.5.2-7.7,5.6-16.1,12.1-15.2,11.6-23.6,17.8-32.1,23.4-12.1,8.1-20.1,15.5-19.8,18.5.1,1,0,2.1-.2,2.6-.2.4-.1,1.3.3,2,2.4,3.8,2.9,4.9,2.6,6.9-7.5,6.9-17.1,15.7-21.8,20-6.1,5.6-8.6,9.2-7.5,10.7,1.5,2.2,3.1,1.7,30-18,1,2.2,1.4,4.6,1.2,6.7-1.8,1-2.2,1.8-1.8,3v.4c-.9.8-1.1,1.2-.6,1.6-1,1.3-3.2,3.2-7.7,6.7-4.8,3.7-8.8,7.4-8.7,8.1,0,.7-.7,1.9-1.7,2.6-3.1,2.3-3.7,4.2-2.1,6.5,2.5,3.5,2.7,7.5.3,10.1-1.4,1.5-1.2,2.9.5,4.2,1.4,1.1,2.9,2.6,3.2,3.4,1.1,2.7,3.3,2.1,10.1-2.8,5.3-3.8,6.8-4.5,7.6-3.4,1,1.4-1.7,5-6.4,8.5-2.9,2.2-3.5,3.6-1.7,3.9,2.1.3,2.1,2.8-.1,4.4-1.1.8-2,2.4-1.9,3.5.1,1.8.3,1.9,1.5,1.1,11-7.6,18.3-12.6,22.7-15.2.6,1,1.1,2.3,1.5,3.7-6.8,4.3-7.5,5-10.7,8.1-1.3,1.3-3.2,3-4.2,3.8-1.7,1.4-1.7,1.6.5,4,2.6,2.8,2.3,5.6-.9,7.9-.8.6-1.4,2.5-1.3,4.1.1,1.7,0,3.9-.1,5-.3,1.8-.2,1.9,2,1.8,1.3,0,2.7.3,3.1.8.4.5,1.3.5,2.1,0,3-2.2,9.1,4.1,7.1,7.3,0,.1-.3.3-.5.5,1,.8,1.9,1.9,2.6,3.1,1.3.7,1.8,2.1,1.6,3.4-.2,1.7.4,2.9,2.1,5,1.6,1.9,2.4,3.4,2.4,5.1,0,3,.7,3.9,2.6,3.6.8-.1,2.6.6,4,1.6s2.8,1.6,3.2,1.2c.4-.3,1.1.2,1.4,1.1.5,1.3,1.2,1.3,3,0,2.9-2.1,3.5-1.8,4.8,2.1.5,1.7,1.5,3.8,2,4.6,1.4,1.9.8,4.9-1.6,7.7-1.1,1.3-1.6,2.8-1.3,3.3.9,1.3,9.5-6.5,9.4-8.4-.1-2.1,5.5-5.9,7.9-5.3,3.9,1,4.5,4.3,1.1,6.2-2.8,1.6-3.1,3.4-.6,3.8.6,0,1.4,1,1.9,2,.8,1.7,6.8,1.6,11.2-.3,4.4-1.8,7.2,5,3.6,8.6-1.7,1.7-1.2,2.9,1.4,3.8,3.4,1.2,4.1,1.8,6.2,5.3,1.5,2.6,4.7,2.2,9.6-1.3,4-2.8,7.6-5,8-4.9.4.2,3.9-1.7,7.6-4.2,2.1-1.4,4.1-2.7,6.1-3.9,0,0,0,.1-.1.2-2,2.2-2.2,3-.7,3.4,1,.3,2.7,2.1,2.7,2.9-3.9,2.5-12.2,6.6-13.8,6.7-2.3.2-4.3,4.2-3,6.1.9,1.3,4.8,0,9-3.1,1.7-1.2,3.4-2,3.8-1.8.4.2,2.7-1,5.5-2.8,0,.6.6,1.1,1.3,1.1s1.4.4,1.9,1c.4.6,1.4,1.1,2.1,1.2,1.4.2,2.8,1.1,4.1,2.3-.9,2.4-3.9,4.1-15.8,10.3-5.9,3.1-6.6,4.2-3.6,5.2,4.1,1.3,3.5,4.6-1.5,8.3-2.3,1.7-2.9,4.8-1.4,6.9.5.8,1,2.1,1.1,2.9.1,2.2,1.7,3,4.3,2.2,1.2-.4,3.6-.7,5.3-.8,2.3,0,6.3-2.2,15.1-8,.2-.1.4-.2.5-.3.5.7.8,1.5.5,1.7-2.4,2.7-2.1,5.9.7,6.8.6.2,1.2.6,1.7,1.3-.6.7-1.1,1.2-1.2,1.5-.6,1.2-3,3.8-5.2,5.8-5.3,4.9-5.7,5.7-3.7,8.5.9,1.3,1.7,3.4,1.7,4.8s.6,3.1,2.4,5.2c1.6,1.8,2.4,3.3,2.4,4.5,0,3.7,4.3,5.8,7.5,3.5,1.7-1.2,3.1-1.6,3.6-.9s1.6.2,3.2-1.4,2.1-1.7,3.2-2.2c.4.2.8.4,1,.7.5.6,1.4,1,2.1,1,1.4,0,2.1.6,2.1,1.8-1.5.8-2.9,1.6-3.9,2.2-3.7,2.1-4.9,4-3.5,5.7,1.6,2.1,1.8,2.9,1,4.2-3.2,5.1.6,3.6,11.7-4.4.6-.5,1.3-.9,2-1.4,1.8,1.7,3,4.2,3.2,7.2.1,1.9.5,3.5,1,3.8.4.2.8.9.9,1.5.1.8.4,1.1,1.3,1.3,2.1.4,3.1,3.8,1.5,5.2-.5.5-.6,1.2-.2,2s.9,1.1,1.6.5c1.7-1.5,4.9,1,6,4.6.6,2.1,3.3,3.2,4.6,2,.3-.2,1.2-.2,2,.2,1.7.7,5.3-.8,8.9-3.8,3.3-2.8,8.1-5.3,10.3-5.5,1,0,2-.3,2.3-.5.4-.3,1.4.8,3.8,3.7,1.9,2.4,3.1,4.3,2.9,4.5s.4.5,1.4.8c1.1.3,2.2,0,3.2-.8,1.4-1.2,3.5-1.5,5.9-.8,2.3.6,9.5,11.6,11.2,17.1,1.3,4.4,3.5,4.9,7.3,1.7,1.2-1,4.9.4,5.4,2.1.7,2.4,5.2,4.5,5.9,2.7.2-.5,1.8-1.2,3.5-1.7,1.9-.5,5.4-2.4,9.1-4.9,3.3-2.2,8.5-5.8,11.5-7.9,5.8-3.9,21.1-14.3,25-16.9,1.2-.8,5.7-4.2,9.9-7.4,4.2-3.3,8.9-6.7,10.3-7.6.9-.5,8.3-6.6,19-15.5.5-.2,1-.5,1.6-.9,2-1.1,3.9-1.9,4.4-1.8.4,0,3.9-1.8,7.8-4.3,3.8-2.5,9.1-5.9,11.8-7.5,2.6-1.7,6.8-4.3,9.2-5.9s5-2.8,5.8-2.8,2.1-.6,3.1-1.4c3.1-2.5,16.9-11.1,18.5-11.5,3.1-.8,8.5-4.2,9-5.7.4-1.1.6-1.3,1.3-.9.6.3.7.2.6-.4-.2-1,1.7-2.6,2.3-1.8.2.3.2.8,0,1.2-.2.4.3.1,1-.6s6-5,11.7-9.4c5.7-4.5,11.1-8.8,12-9.5.9-.8,5.7-4.4,10.8-8,13-9.3,13.7-9.9,13.7-10.9s-.3-.7-1-.2c-.5.4-1,.4-1,.1,0-1,5.8-4.7,7.4-4.6.8,0,2.1-.5,2.8-1.1s1.6-1,2-.8c1.1.6,4.8-3.4,3.8-4.1-.9-.7,0-1.7,1.1-1.1,1,.6,1.6-.2.7-.9-.7-.6-.5-1,.9-2,1-.7,1.7-1,1.7-.6,0,.6,0,.8-1.1,1.8s0,.5.2.7,2.5-1.2,4.9-3.2c2.4-1.9,7-5.6,10.3-8.1,7.4-5.7,12.5-10.3,14.2-12.7.7-1,3.2-3.3,5.6-5.2,2.4-1.8,5.1-4.4,6.2-5.7,1.7-2.1,5.1-5.6,9-9.3,3.7-2.9,7.7-6.2,12-9.6,5.4-4.4,11.9-9.7,14.4-11.6,10.4-8,11.8-9.2,11-9.8-.5-.3-8.5,5.2-17.9,12.2-3.3,2.5-6.1,4.6-8.7,6.4-.5,0-1.4.5-2.4,1.3-1.4,1-2.7,1.6-2.9,1.2-.3-.4-1.3.2-2.9,1.8-2.1,2-2.5,2.2-3.1,1.4-.8-1.2.2-2.5,6.9-8.7.6-.6,3.9-3.7,7.2-6.8,3.4-3.2,7.4-7,9.1-8.5,3-2.7,3.4-3.9,1.2-3.5-2.1.5-2.8-2.7-.9-4.1.6-.4,1.1-1.3,1.1-2s.8-2,1.8-2.9c.9-.8,1.4-1.5,1.7-1.9,1.3-1,2.6-2,3.8-3,13.4-10.3,18.9-15,18.2-15.6-.6-.5-2.5.2-4.6,1.7s-4.3,2.3-5.2,1.9c-2.1-.9,1.9-5.5,12-14,8.3-6.9,11-9.8,10.6-11.4-.2-.6.2-1.5.9-2s.8-1.7,0-3-.5-3.1.4-4.9c1.8-3.2,1.7-3.4-1.9-4.4l-.6-.2h0ZM215.2,342.1v10.1c0,3.4-2.7,6.1-6.1,6.1s-6.1-2.7-6.1-6.1v-17.9h12.3v7.8h0ZM215.2,317.5h-12.3v-22.5h-28.6v22.5h-12.3v-56h12.3v22.4h28.6v-22.5h12.3v56.1ZM215.2,234.6v10.1h-12.3v-17.9c0-3.4,2.7-6.1,6.1-6.1s6.1,2.7,6.1,6.1v7.8h0ZM256.9,234.6v-47.9c0-3.4,2.7-6.1,6.1-6.1s6.1,2.7,6.1,6.1v58h-12.3v-10.1h0ZM229.9,234.6v-27.1c0-3.4,2.7-6.1,6.1-6.1s6.1,2.7,6.1,6.1v37.1h-12.3v-10.1h0ZM242.2,344.4v27.1c0,3.4-2.7,6.1-6.1,6.1s-6.1-2.7-6.1-6.1v-37.1h12.3v10.1h0ZM269.2,344.4v47.9c0,3.4-2.7,6.1-6.1,6.1s-6.1-2.7-6.1-6.1v-58h12.3v10.1h0ZM271.5,317.5h-44.3v-56.1h44.3v11.2h-32v9.8h22.5v10.9h-22.5v13h32.1v11.2h-.1ZM310.8,234.6v-47.9c0-3.4,2.7-6.1,6.1-6.1s6.1,2.7,6.1,6.1v58h-12.3v-10.1h0ZM283.8,234.6v-77.4c0-3.4,2.7-6.1,6.1-6.1s6.1,2.7,6.1,6.1v87.5h-12.3v-10.1h0ZM296.1,344.4v77.4c0,3.4-2.7,6.1-6.1,6.1s-6.1-2.7-6.1-6.1v-87.5h12.3v10.1h0ZM323.1,344.4v47.9c0,3.4-2.7,6.1-6.1,6.1s-6.1-2.7-6.1-6.1v-58h12.3v10.1h0ZM336.6,317.5h-12.1l-28.5-37.8v37.8h-12.3v-56h12.2l28.4,37.9v-37.9h12.2v56h0ZM391.7,234.6v-47.9c0-3.4,2.7-6.1,6.1-6.1s6.1,2.7,6.1,6.1v58h-12.3v-10.1h0ZM364.7,234.6v-25.2c0-3.4,2.7-6.1,6.1-6.1s6.1,2.7,6.1,6.1v35.3h-12.3v-10.1h0ZM337.8,234.6v-17.7c0-3.4,2.7-6.1,6.1-6.1s6.1,2.7,6.1,6.1v27.7h-12.3v-10.1h0ZM350,344.4v17.7c0,3.4-2.7,6.1-6.1,6.1s-6.1-2.7-6.1-6.1v-27.7h12.3v10.1h0ZM377,344.4v25.2c0,3.4-2.7,6.1-6.1,6.1s-6.1-2.7-6.1-6.1v-35.3h12.3v10.1h0ZM404,344.4v47.9c0,3.4-2.7,6.1-6.1,6.1s-6.1-2.7-6.1-6.1v-58h12.3v10.1h0ZM377.8,318.6c-17,0-30.1-12.8-30.1-29.2s13.1-29.1,30.1-29.1,30.1,12.7,30.1,29.1-13.1,29.2-30.1,29.2ZM445.6,234.6v-16.8c0-3.4,2.7-6.1,6.1-6.1s6.1,2.7,6.1,6.1v26.9h-12.3v-10.1h.1ZM418.6,234.6v-26c0-3.4,2.7-6.1,6.1-6.1s6.1,2.7,6.1,6.1v36.1h-12.3v-10.1h0ZM430.9,344.4v26c0,3.4-2.7,6.1-6.1,6.1s-6.1-2.7-6.1-6.1v-36.1h12.3v10.1h0ZM457.9,344.4v16.8c0,3.4-2.7,6.1-6.1,6.1s-6.1-2.7-6.1-6.1v-26.9h12.3v10.1h-.1ZM438.2,318.3c-6.2,0-15.8-1.3-21.4-3.4v-12.8c5.6,3.3,15.5,5.1,21.9,5.1s9.7-2.2,9.9-5.7c.2-3.4-1.9-4.6-8.6-6.1l-7-1.5c-12.5-2.8-17.6-8.5-17.6-16.9s9.5-16.2,21.8-16.2,14.4,1.2,19.1,3v12.5c-4.5-2.7-12.5-4.4-18-4.5-5.8,0-9.8,2-9.8,5.5s2.4,4.7,8,5.9l7.7,1.7c12,2.6,17,7.7,17,16.6s-9.3,16.8-23.2,16.8h.2,0ZM472.5,238.4v-6.9c0-3.4,2.7-6.1,6.1-6.1s6.1,2.7,6.1,6.1v13.2h-12.3v-6.3h.1ZM484.8,344.4v3.1c0,3.4-2.7,6.1-6.1,6.1s-6.1-2.7-6.1-6.1v-13.2h12.3v10.1h-.1ZM484.8,317.5h-12.3v-56h12.3v56ZM520,318.3c-6.2,0-15.8-1.3-21.4-3.4v-12.8c5.6,3.3,15.5,5.1,21.9,5.1s9.7-2.2,9.9-5.7c.2-3.4-1.9-4.6-8.6-6.1l-7-1.5c-12.5-2.8-17.6-8.5-17.6-16.9s9.5-16.2,21.8-16.2,14.4,1.2,19.1,3v12.5c-4.5-2.7-12.5-4.4-18-4.5-5.8,0-9.8,2-9.8,5.5s2.4,4.7,8,5.9l7.7,1.7c12,2.6,17,7.7,17,16.6s-9.3,16.8-23.2,16.8h.2,0ZM395.6,289.5c0,10.3-8,17.6-17.8,17.6s-17.8-7.3-17.8-17.6,8-17.6,17.8-17.6,17.8,7.3,17.8,17.6ZM363.5,35.7c.7-.4,1-.3.8.3s-.8.9-1.2.7c-.4-.2-.2-.6.4-1.1h0ZM655.1,316.4c.6.6-2.7,3.5-9.9,8.8-10,7.3-14.5,9.3-10,4.5,3.6-3.9,19-14.1,19.9-13.2h0ZM485.8,81.6c1-.7,1.8-1.9,1.6-2.6s0-1.5.6-1.9c1.5-1.1,3.6,3.6,2.5,5.5-2.1,3.5-6.4,7.3-7.1,6.3-.4-.5-.2-.9.3-.8.5,0,.8-1,.6-2.5-.2-1.7.4-3.2,1.5-4h0ZM504.6,110.1h0c.4-.4.6-1.6.6-2.8,0-2.2,2.7-4.2,3.8-2.6.8,1.1-2.2,5.4-3.9,5.8-.8.2-.9,0-.5-.4h0ZM495.8,93.2c.7-.4,1-.3.8.3-.2.6-.8.9-1.2.7-.4-.2-.2-.6.4-1.1h0Z"/>
</svg>